<svg width="438" height="433" viewBox="0 0 438 433" fill="none" xmlns="http://www.w3.org/2000/svg">
<path d="M104.95 0C77.2386 0 53.9377 19.0857 46.9362 44.6777H15.6862C13.6239 44.6697 11.5805 45.0699 9.67377 45.8554C7.76699 46.6408 6.03456 47.7959 4.57637 49.2541C3.11817 50.7123 1.96307 52.4448 1.17764 54.3515C0.392219 56.2583 -0.0079803 58.3016 0.000120638 60.3638C0.00809071 62.4157 0.420147 64.4459 1.21276 66.3385C2.00537 68.2312 3.16302 69.9491 4.61961 71.3944C6.0762 72.8396 7.80319 73.9839 9.702 74.7617C11.6008 75.5395 13.6342 75.9357 15.6862 75.9277H46.8751C53.8291 101.59 77.1883 120.758 104.95 120.758C132.432 120.758 155.597 101.961 162.811 76.6907L421.875 75.9277C423.927 75.9237 425.958 75.5156 427.852 74.7267C429.747 73.9377 431.467 72.7834 432.915 71.3297C434.363 69.8759 435.511 68.1512 436.292 66.2539C437.074 64.3567 437.474 62.3241 437.47 60.2722C437.462 56.1388 435.816 52.177 432.893 49.2542C429.971 46.3314 426.009 44.6858 421.875 44.6777L163.239 45.4407C156.506 19.4557 132.942 3.12992e-05 104.95 0ZM104.95 31.25C121.231 31.25 134.094 44.0834 134.094 60.3638C134.094 76.6443 121.231 89.5081 104.95 89.5081C88.6692 89.5081 75.8363 76.6443 75.8363 60.3638C75.8363 44.0834 88.6692 31.25 104.95 31.25ZM271.881 151.001C243.711 151.001 220.005 170.426 213.013 196.472H15.6862C13.6317 196.464 11.5957 196.861 9.69496 197.641C7.79417 198.421 6.06583 199.568 4.60884 201.016C3.15185 202.465 1.99484 204.186 1.20401 206.083C0.41319 207.979 0.00408765 210.012 0.000120638 212.067C-0.00394783 214.126 0.399225 216.166 1.18645 218.07C1.97368 219.973 3.12943 221.702 4.58722 223.157C6.04501 224.611 7.77608 225.764 9.68085 226.547C11.5856 227.331 13.6265 227.73 15.6862 227.722H213.043C220.058 253.761 243.735 273.224 271.881 273.224C300.027 273.224 323.705 253.761 330.719 227.722H421.875C423.927 227.718 425.958 227.31 427.852 226.521C429.747 225.732 431.467 224.578 432.915 223.124C434.363 221.67 435.511 219.946 436.292 218.048C437.074 216.151 437.474 214.119 437.47 212.067C437.462 207.933 435.816 203.971 432.893 201.049C429.971 198.126 426.009 196.48 421.875 196.472H330.75C323.758 170.426 300.051 151.001 271.881 151.001ZM271.881 182.251C288.581 182.251 301.788 195.367 301.788 212.067C301.788 228.766 288.581 241.974 271.881 241.974C255.181 241.974 241.974 228.766 241.974 212.067C241.974 195.367 255.181 182.251 271.881 182.251ZM150.452 310.303C122.315 310.303 98.6068 329.748 91.5834 355.774H15.6862C13.6239 355.766 11.5805 356.166 9.67376 356.952C7.76698 357.737 6.03455 358.892 4.57636 360.35C3.11817 361.809 1.96306 363.541 1.17764 365.448C0.392213 367.354 -0.00798264 369.398 0.000120638 371.46C0.00809225 373.512 0.42015 375.542 1.21276 377.435C2.00538 379.327 3.16303 381.045 4.61961 382.491C6.0762 383.936 7.8032 385.08 9.702 385.858C11.6008 386.636 13.6342 387.032 15.6862 387.024H91.5529C98.5315 413.115 122.268 432.617 150.452 432.617C178.635 432.617 202.341 413.114 209.32 387.024H421.875C426.003 387.016 429.961 385.374 432.883 382.458C435.805 379.542 437.454 375.588 437.47 371.46C437.478 369.406 437.081 367.37 436.301 365.469C435.521 363.568 434.374 361.84 432.926 360.383C431.477 358.926 429.756 357.769 427.859 356.978C425.963 356.187 423.93 355.778 421.875 355.774H209.29C202.265 329.749 178.588 310.303 150.452 310.303ZM150.452 341.553C167.152 341.553 180.359 354.76 180.359 371.46C180.359 388.159 167.152 401.367 150.452 401.367C133.752 401.367 120.545 388.159 120.545 371.46C120.545 354.76 133.752 341.553 150.452 341.553Z" fill="black"/>
</svg>
