<svg width="70" height="70" viewBox="0 0 70 70" fill="none" xmlns="http://www.w3.org/2000/svg">
<path d="M40.8333 52.5001V17.5001C40.8333 15.953 40.2188 14.4693 39.1248 13.3753C38.0308 12.2813 36.5471 11.6667 35 11.6667H11.6667C10.1196 11.6667 8.63585 12.2813 7.54189 13.3753C6.44792 14.4693 5.83334 15.953 5.83334 17.5001V49.5834C5.83334 50.357 6.14063 51.0988 6.68762 51.6458C7.2346 52.1928 7.97646 52.5001 8.75001 52.5001H14.5833" stroke="black" stroke-width="4" stroke-linecap="round" stroke-linejoin="round"/>
<path d="M43.75 52.5H26.25" stroke="black" stroke-width="4" stroke-linecap="round" stroke-linejoin="round"/>
<path d="M55.4167 52.4999H61.25C62.0236 52.4999 62.7654 52.1926 63.3124 51.6456C63.8594 51.0987 64.1667 50.3568 64.1667 49.5833V38.9374C64.1655 38.2755 63.9392 37.6337 63.525 37.1174L53.375 24.4299C53.1022 24.0883 52.7561 23.8124 52.3624 23.6226C51.9686 23.4328 51.5372 23.3339 51.1 23.3333H40.8333" stroke="black" stroke-width="4" stroke-linecap="round" stroke-linejoin="round"/>
<path d="M49.5833 58.3334C52.805 58.3334 55.4167 55.7217 55.4167 52.5001C55.4167 49.2784 52.805 46.6667 49.5833 46.6667C46.3617 46.6667 43.75 49.2784 43.75 52.5001C43.75 55.7217 46.3617 58.3334 49.5833 58.3334Z" stroke="black" stroke-width="4" stroke-linecap="round" stroke-linejoin="round"/>
<path d="M20.4167 58.3334C23.6383 58.3334 26.25 55.7217 26.25 52.5001C26.25 49.2784 23.6383 46.6667 20.4167 46.6667C17.195 46.6667 14.5833 49.2784 14.5833 52.5001C14.5833 55.7217 17.195 58.3334 20.4167 58.3334Z" stroke="black" stroke-width="4" stroke-linecap="round" stroke-linejoin="round"/>
</svg>
